<svg width="412" height="100" viewBox="0 0 1650 400" fill="none" xmlns="http://www.w3.org/2000/svg">
<path fill-rule="evenodd" clip-rule="evenodd" d="M215.319 60.9473C242.851 60.9473 269.764 69.1156 292.656 84.4195C315.548 99.7233 333.39 121.475 343.926 146.924C354.462 172.374 357.218 200.378 351.847 227.394C346.476 254.411 333.218 279.228 313.75 298.706C294.283 318.184 269.479 331.449 242.476 336.823C215.474 342.197 187.484 339.438 162.048 328.897C136.612 318.356 114.872 300.504 99.5761 277.6C84.2803 254.697 76.1162 227.769 76.1162 200.223C76.1162 163.285 90.7821 127.859 116.888 101.74C142.993 75.6209 178.4 60.9473 215.319 60.9473Z" fill="#0071BB"/>
<path fill-rule="evenodd" clip-rule="evenodd" d="M271.167 182.563C273.677 182.563 276.129 183.311 278.212 184.71C280.295 186.11 281.915 188.098 282.865 190.422C283.814 192.746 284.051 195.3 283.545 197.759C283.039 200.218 281.813 202.471 280.023 204.23C278.233 205.99 275.96 207.176 273.494 207.639C271.027 208.101 268.479 207.819 266.174 206.827C263.869 205.836 261.91 204.18 260.549 202.071C259.187 199.963 258.483 197.496 258.528 194.986C258.586 191.671 259.943 188.511 262.308 186.187C264.672 183.864 267.853 182.562 271.167 182.563Z" fill="white"/>
<path d="M271.167 182.563C273.677 182.563 276.129 183.311 278.212 184.71C280.295 186.11 281.915 188.098 282.865 190.422C283.814 192.746 284.051 195.3 283.545 197.759C283.039 200.218 281.813 202.471 280.023 204.23C278.233 205.99 275.96 207.176 273.494 207.639C271.027 208.101 268.479 207.819 266.174 206.827C263.869 205.836 261.91 204.18 260.549 202.071C259.187 199.963 258.483 197.496 258.528 194.986C258.586 191.671 259.943 188.511 262.308 186.187C264.672 183.864 267.853 182.562 271.167 182.563Z" stroke="white" stroke-width="0.26" stroke-miterlimit="2.61"/>
<path d="M84.1899 153.928L116.93 193.315L125.394 213.036L111.362 258.496" stroke="white" stroke-width="0.26" stroke-miterlimit="2.61"/>
<path d="M123.501 268.802L210.308 221.226L202.568 215.822L135.194 196.602" stroke="white" stroke-width="0.26" stroke-miterlimit="2.61"/>
<path d="M195.998 153.928L207.691 213.036L218.938 215.376L271.167 195.209" stroke="white" stroke-width="0.26" stroke-miterlimit="2.61"/>
<path d="M216.154 227.521L217.546 289.304L289.097 273.037" stroke="white" stroke-width="0.26" stroke-miterlimit="2.61"/>
<path fill-rule="evenodd" clip-rule="evenodd" d="M176.843 251.922C177.676 251.922 178.489 252.168 179.182 252.628C179.876 253.089 180.418 253.744 180.741 254.511C181.065 255.278 181.155 256.124 181 256.942C180.846 257.76 180.454 258.514 179.873 259.111C179.292 259.707 178.549 260.119 177.735 260.294C176.922 260.47 176.075 260.402 175.3 260.099C174.525 259.795 173.856 259.27 173.378 258.588C172.9 257.907 172.634 257.1 172.612 256.267C172.597 255.702 172.695 255.139 172.901 254.613C173.107 254.086 173.417 253.606 173.811 253.201C174.205 252.796 174.677 252.474 175.198 252.254C175.719 252.035 176.278 251.922 176.843 251.922Z" fill="white"/>
<path d="M176.843 251.922C177.676 251.922 178.489 252.168 179.182 252.628C179.876 253.089 180.418 253.744 180.741 254.511C181.065 255.278 181.155 256.124 181 256.942C180.846 257.76 180.454 258.514 179.873 259.111C179.292 259.707 178.549 260.119 177.735 260.294C176.922 260.47 176.075 260.402 175.3 260.099C174.525 259.795 173.856 259.27 173.378 258.588C172.9 257.907 172.634 257.1 172.612 256.267C172.597 255.702 172.695 255.139 172.901 254.613C173.107 254.086 173.417 253.606 173.811 253.201C174.205 252.796 174.677 252.474 175.198 252.254C175.719 252.035 176.278 251.922 176.843 251.922Z" stroke="white" stroke-width="0.26" stroke-miterlimit="2.61"/>
<path fill-rule="evenodd" clip-rule="evenodd" d="M258.249 228.021C259.086 228.021 259.904 228.27 260.6 228.735C261.296 229.2 261.839 229.862 262.159 230.635C262.479 231.409 262.563 232.26 262.4 233.081C262.236 233.903 261.833 234.657 261.242 235.249C260.65 235.841 259.896 236.245 259.075 236.408C258.254 236.571 257.403 236.488 256.63 236.167C255.857 235.847 255.196 235.304 254.731 234.608C254.266 233.911 254.017 233.093 254.017 232.255C254.017 231.133 254.463 230.056 255.257 229.262C256.051 228.468 257.127 228.021 258.249 228.021Z" fill="white"/>
<path d="M258.249 228.021C259.086 228.021 259.904 228.27 260.6 228.735C261.296 229.2 261.839 229.862 262.159 230.635C262.479 231.409 262.563 232.26 262.4 233.081C262.236 233.903 261.833 234.657 261.242 235.249C260.65 235.841 259.896 236.245 259.075 236.408C258.254 236.571 257.403 236.488 256.63 236.167C255.857 235.847 255.196 235.304 254.731 234.608C254.266 233.911 254.017 233.093 254.017 232.255C254.017 231.133 254.463 230.056 255.257 229.262C256.051 228.468 257.127 228.021 258.249 228.021Z" stroke="white" stroke-width="0.26" stroke-miterlimit="2.61"/>
<path fill-rule="evenodd" clip-rule="evenodd" d="M309.699 165.182C310.821 165.182 311.897 165.628 312.691 166.422C313.485 167.216 313.93 168.293 313.93 169.416C313.93 170.539 313.485 171.615 312.691 172.41C311.897 173.204 310.821 173.65 309.699 173.65C308.576 173.65 307.5 173.204 306.706 172.41C305.913 171.615 305.467 170.539 305.467 169.416C305.467 168.293 305.913 167.216 306.706 166.422C307.5 165.628 308.576 165.182 309.699 165.182Z" fill="white"/>
<path d="M309.699 165.182C310.821 165.182 311.897 165.628 312.691 166.422C313.485 167.216 313.93 168.293 313.93 169.416C313.93 170.539 313.485 171.615 312.691 172.41C311.897 173.204 310.821 173.65 309.699 173.65C308.576 173.65 307.5 173.204 306.706 172.41C305.913 171.615 305.467 170.539 305.467 169.416C305.467 168.293 305.913 167.216 306.706 166.422C307.5 165.628 308.576 165.182 309.699 165.182Z" stroke="white" stroke-width="0.26" stroke-miterlimit="2.61"/>
<path fill-rule="evenodd" clip-rule="evenodd" d="M241.879 134.707C242.716 134.707 243.534 134.955 244.23 135.421C244.926 135.886 245.468 136.547 245.789 137.321C246.109 138.094 246.193 138.946 246.029 139.767C245.866 140.588 245.463 141.343 244.871 141.935C244.279 142.527 243.525 142.93 242.705 143.094C241.884 143.257 241.033 143.173 240.26 142.853C239.486 142.532 238.825 141.99 238.36 141.293C237.895 140.597 237.647 139.778 237.647 138.941C237.647 137.818 238.093 136.741 238.887 135.947C239.68 135.153 240.757 134.707 241.879 134.707Z" fill="white"/>
<path d="M241.879 134.707C242.716 134.707 243.534 134.955 244.23 135.421C244.926 135.886 245.468 136.547 245.789 137.321C246.109 138.094 246.193 138.946 246.029 139.767C245.866 140.588 245.463 141.343 244.871 141.935C244.279 142.527 243.525 142.93 242.705 143.094C241.884 143.257 241.033 143.173 240.26 142.853C239.486 142.532 238.825 141.99 238.36 141.293C237.895 140.597 237.647 139.778 237.647 138.941C237.647 137.818 238.093 136.741 238.887 135.947C239.68 135.153 240.757 134.707 241.879 134.707Z" stroke="white" stroke-width="0.26" stroke-miterlimit="2.61"/>
<path fill-rule="evenodd" clip-rule="evenodd" d="M172.166 92.9805C173.003 92.9805 173.821 93.2288 174.517 93.694C175.213 94.1593 175.756 94.8205 176.076 95.5942C176.396 96.3678 176.48 97.2191 176.317 98.0405C176.153 98.8618 175.75 99.6162 175.158 100.208C174.567 100.8 173.813 101.204 172.992 101.367C172.171 101.53 171.32 101.447 170.547 101.126C169.773 100.806 169.113 100.263 168.648 99.5667C168.183 98.8704 167.934 98.0519 167.934 97.2145C167.934 96.0915 168.38 95.0146 169.174 94.2206C169.967 93.4265 171.044 92.9805 172.166 92.9805Z" fill="white"/>
<path d="M172.166 92.9805C173.003 92.9805 173.821 93.2288 174.517 93.694C175.213 94.1593 175.756 94.8205 176.076 95.5942C176.396 96.3678 176.48 97.2191 176.317 98.0405C176.153 98.8618 175.75 99.6162 175.158 100.208C174.567 100.8 173.813 101.204 172.992 101.367C172.171 101.53 171.32 101.447 170.547 101.126C169.773 100.806 169.113 100.263 168.648 99.5667C168.183 98.8704 167.934 98.0519 167.934 97.2145C167.934 96.0915 168.38 95.0146 169.174 94.2206C169.967 93.4265 171.044 92.9805 172.166 92.9805Z" stroke="white" stroke-width="0.26" stroke-miterlimit="2.61"/>
<path fill-rule="evenodd" clip-rule="evenodd" d="M210.308 206.128C213.325 206.161 216.265 207.089 218.755 208.794C221.245 210.498 223.174 212.904 224.298 215.705C225.422 218.507 225.691 221.579 225.07 224.534C224.449 227.488 222.966 230.192 220.809 232.303C218.652 234.414 215.918 235.838 212.952 236.395C209.987 236.951 206.923 236.615 204.148 235.43C201.373 234.244 199.012 232.262 197.363 229.733C195.714 227.205 194.851 224.244 194.884 221.225C194.906 219.221 195.322 217.24 196.109 215.396C196.896 213.553 198.038 211.882 199.47 210.48C200.903 209.078 202.597 207.972 204.456 207.226C206.316 206.479 208.304 206.106 210.308 206.128Z" fill="white"/>
<path d="M210.308 206.128C213.325 206.161 216.265 207.089 218.755 208.794C221.245 210.498 223.174 212.904 224.298 215.705C225.422 218.507 225.691 221.579 225.07 224.534C224.449 227.488 222.966 230.192 220.809 232.303C218.652 234.414 215.918 235.838 212.952 236.395C209.987 236.951 206.923 236.615 204.148 235.43C201.373 234.244 199.012 232.262 197.363 229.733C195.714 227.205 194.851 224.244 194.884 221.225C194.906 219.221 195.322 217.24 196.109 215.396C196.896 213.553 198.038 211.882 199.47 210.48C200.903 209.078 202.597 207.972 204.456 207.226C206.316 206.479 208.304 206.106 210.308 206.128Z" stroke="white" stroke-width="0.26" stroke-miterlimit="2.61"/>
<path fill-rule="evenodd" clip-rule="evenodd" d="M126.786 169.471C131.599 169.471 136.303 170.899 140.305 173.574C144.306 176.249 147.425 180.051 149.266 184.5C151.108 188.948 151.59 193.843 150.651 198.566C149.712 203.288 147.395 207.626 143.992 211.031C140.589 214.436 136.253 216.754 131.533 217.694C126.813 218.633 121.921 218.151 117.474 216.308C113.028 214.466 109.228 211.345 106.554 207.342C103.88 203.338 102.453 198.631 102.453 193.816C102.453 187.359 105.017 181.167 109.58 176.601C114.143 172.036 120.333 169.471 126.786 169.471Z" fill="white"/>
<path d="M126.786 169.471C131.599 169.471 136.303 170.899 140.305 173.574C144.306 176.249 147.425 180.051 149.266 184.5C151.108 188.948 151.59 193.843 150.651 198.566C149.712 203.288 147.395 207.626 143.992 211.031C140.589 214.436 136.253 216.754 131.533 217.694C126.813 218.633 121.921 218.151 117.474 216.308C113.028 214.466 109.228 211.345 106.554 207.342C103.88 203.338 102.453 198.631 102.453 193.816C102.453 187.359 105.017 181.167 109.58 176.601C114.143 172.036 120.333 169.471 126.786 169.471Z" stroke="white" stroke-width="0.26" stroke-miterlimit="2.61"/>
<path fill-rule="evenodd" clip-rule="evenodd" d="M125.728 306.407C107.318 290.861 93.2544 270.802 84.9138 248.19C92.6401 243.317 101.943 241.605 110.897 243.405C119.85 245.206 127.769 250.383 133.014 257.863C138.258 265.344 140.427 274.556 139.071 283.592C137.714 292.629 132.937 300.797 125.728 306.407Z" fill="white"/>
<path d="M125.728 306.407C107.318 290.861 93.2544 270.802 84.9138 248.19C92.6401 243.317 101.943 241.605 110.897 243.405C119.85 245.206 127.769 250.383 133.014 257.863C138.258 265.344 140.427 274.556 139.071 283.592C137.714 292.629 132.937 300.797 125.728 306.407Z" stroke="white" stroke-width="0.26" stroke-miterlimit="2.61"/>
<path fill-rule="evenodd" clip-rule="evenodd" d="M217.546 274.373C220.513 274.362 223.417 275.233 225.889 276.876C228.36 278.518 230.289 280.858 231.429 283.599C232.57 286.339 232.871 289.357 232.295 292.269C231.719 295.181 230.291 297.857 228.193 299.956C226.095 302.055 223.421 303.483 220.51 304.06C217.6 304.636 214.583 304.335 211.844 303.194C209.105 302.053 206.766 300.123 205.125 297.65C203.483 295.177 202.613 292.272 202.624 289.304C202.624 285.344 204.196 281.546 206.994 278.746C209.793 275.946 213.589 274.373 217.546 274.373Z" fill="white"/>
<path d="M217.546 274.373C220.513 274.362 223.417 275.233 225.889 276.876C228.36 278.518 230.289 280.858 231.429 283.599C232.57 286.339 232.871 289.357 232.295 292.269C231.719 295.181 230.291 297.857 228.193 299.956C226.095 302.055 223.421 303.483 220.51 304.06C217.6 304.636 214.583 304.335 211.844 303.194C209.105 302.053 206.766 300.123 205.125 297.65C203.483 295.177 202.613 292.272 202.624 289.304C202.624 285.344 204.196 281.546 206.994 278.746C209.793 275.946 213.589 274.373 217.546 274.373Z" stroke="white" stroke-width="0.26" stroke-miterlimit="2.61"/>
<path fill-rule="evenodd" clip-rule="evenodd" d="M193.603 135.711C196.348 135.7 199.034 136.504 201.321 138.022C203.609 139.539 205.394 141.702 206.452 144.236C207.51 146.769 207.793 149.56 207.264 152.255C206.735 154.949 205.419 157.426 203.483 159.372C201.546 161.318 199.075 162.644 196.385 163.184C193.694 163.724 190.903 163.452 188.366 162.404C185.83 161.356 183.661 159.578 182.135 157.295C180.609 155.013 179.795 152.329 179.794 149.583C179.794 145.913 181.248 142.394 183.836 139.794C186.424 137.194 189.936 135.726 193.603 135.711Z" fill="white"/>
<path d="M193.603 135.711C196.348 135.7 199.034 136.504 201.321 138.022C203.609 139.539 205.394 141.702 206.452 144.236C207.51 146.769 207.793 149.56 207.264 152.255C206.735 154.949 205.419 157.426 203.483 159.372C201.546 161.318 199.075 162.644 196.385 163.184C193.694 163.724 190.903 163.452 188.366 162.404C185.83 161.356 183.661 159.578 182.135 157.295C180.609 155.013 179.795 152.329 179.794 149.583C179.794 145.913 181.248 142.394 183.836 139.794C186.424 137.194 189.936 135.726 193.603 135.711Z" stroke="white" stroke-width="0.26" stroke-miterlimit="2.61"/>
<path d="M1529.51 192.869C1528.35 187.431 1526.01 182.314 1522.66 177.883C1519.47 173.966 1515.41 170.855 1510.8 168.803C1505.93 166.525 1500.63 165.345 1495.26 165.349C1486.78 165.201 1478.56 168.288 1472.27 173.984C1466.99 179.14 1463.28 185.689 1461.57 192.869H1529.51ZM1529.51 217.438L1539.36 222.619C1536.6 228.389 1532.83 233.617 1528.23 238.05C1524.04 241.92 1519.17 244.963 1513.86 247.02C1508.1 249.124 1502.01 250.162 1495.87 250.084C1489.33 250.425 1482.79 249.284 1476.75 246.747C1470.7 244.211 1465.31 240.343 1460.96 235.432C1452.81 226.344 1448.33 214.55 1448.38 202.34C1448.19 191.133 1451.89 180.208 1458.85 171.421C1463.03 165.846 1468.49 161.361 1474.77 158.346C1481.05 155.33 1487.97 153.872 1494.93 154.095C1502.1 153.862 1509.22 155.349 1515.7 158.431C1522.18 161.512 1527.83 166.1 1532.18 171.811C1538.97 180.768 1542.53 191.768 1542.26 203.009H1460.41C1460.27 212.703 1463.9 222.072 1470.54 229.137C1473.63 232.482 1477.39 235.138 1481.57 236.933C1485.75 238.728 1490.27 239.621 1494.82 239.555C1499.44 239.573 1504.03 238.742 1508.35 237.103C1512.42 235.636 1516.19 233.447 1519.48 230.641C1523.49 226.721 1526.87 222.212 1529.51 217.271V217.438ZM1439.53 166.463L1431.95 174.262C1427.3 168.899 1420.71 165.595 1413.63 165.07C1410 165.004 1406.48 166.363 1403.83 168.858C1402.56 169.956 1401.54 171.315 1400.84 172.844C1400.13 174.372 1399.77 176.034 1399.77 177.716C1399.84 180.846 1401.03 183.847 1403.11 186.184C1407.19 190.211 1411.96 193.475 1417.2 195.822C1423.99 198.85 1430.05 203.316 1434.96 208.914C1438.04 213.046 1439.69 218.076 1439.64 223.232C1439.69 226.779 1439.01 230.299 1437.65 233.576C1436.29 236.852 1434.28 239.816 1431.73 242.284C1429.14 244.853 1426.06 246.868 1422.67 248.209C1419.29 249.55 1415.66 250.188 1412.02 250.084C1406.81 250.08 1401.67 248.899 1396.98 246.63C1392.34 244.453 1388.28 241.208 1385.12 237.159L1392.47 228.747C1394.72 231.724 1397.59 234.174 1400.87 235.925C1404.16 237.677 1407.8 238.687 1411.52 238.886C1413.71 238.958 1415.9 238.596 1417.95 237.822C1420.01 237.048 1421.89 235.876 1423.49 234.374C1425.03 233.063 1426.28 231.433 1427.13 229.596C1427.99 227.76 1428.44 225.759 1428.44 223.733C1428.48 220.452 1427.33 217.268 1425.22 214.764C1420.87 210.719 1415.88 207.425 1410.46 205.014C1404.02 202.123 1398.31 197.82 1393.76 192.424C1390.78 188.311 1389.2 183.351 1389.25 178.273C1389.15 175.06 1389.73 171.862 1390.95 168.887C1392.17 165.912 1393.99 163.226 1396.32 161.003C1398.7 158.703 1401.52 156.907 1404.61 155.72C1407.7 154.533 1410.99 153.98 1414.3 154.095C1424.01 154.737 1433.07 159.181 1439.53 166.463ZM1345.2 156.435H1357.17V169.805C1360.08 165.197 1363.87 161.203 1368.31 158.051C1371.96 155.523 1376.29 154.146 1380.73 154.095C1384.4 154.237 1387.99 155.311 1391.14 157.215L1385.18 167.131C1383.24 166.16 1381.11 165.609 1378.94 165.516C1374.76 165.703 1370.8 167.429 1367.81 170.362C1363.68 174.45 1360.8 179.629 1359.51 185.293C1357.64 195.711 1356.91 206.304 1357.34 216.881V247.744H1345.37L1345.2 156.435ZM1322.48 192.869C1321.31 187.439 1318.97 182.327 1315.63 177.883C1312.45 173.966 1308.39 170.855 1303.77 168.803C1298.91 166.525 1293.61 165.345 1288.24 165.349C1279.74 165.187 1271.49 168.275 1265.19 173.984C1259.93 179.147 1256.24 185.695 1254.55 192.869H1322.48ZM1322.48 217.438L1332.34 222.619C1329.58 228.389 1325.81 233.617 1321.2 238.05C1317.02 241.92 1312.15 244.963 1306.84 247.02C1301.06 249.129 1294.95 250.168 1288.8 250.084C1282.26 250.42 1275.73 249.277 1269.7 246.741C1263.66 244.204 1258.28 240.339 1253.94 235.432C1245.79 226.344 1241.31 214.55 1241.36 202.34C1241.23 191.106 1245.01 180.178 1252.05 171.421C1256.23 165.846 1261.69 161.361 1267.97 158.346C1274.25 155.33 1281.17 153.872 1288.13 154.095C1295.27 153.889 1302.36 155.389 1308.81 158.469C1315.26 161.55 1320.88 166.124 1325.21 171.811C1332.01 180.768 1335.56 191.768 1335.29 203.009H1253.38C1253.25 212.703 1256.88 222.072 1263.52 229.137C1266.6 232.475 1270.35 235.127 1274.52 236.922C1278.69 238.716 1283.2 239.613 1287.74 239.555C1292.36 239.583 1296.95 238.752 1301.27 237.103C1305.35 235.649 1309.12 233.459 1312.41 230.641C1316.43 226.726 1319.83 222.217 1322.48 217.271V217.438ZM1149.48 156.156H1162.01L1192.52 222.842L1222.76 156.379H1235.34L1193.58 247.688H1191.58L1149.48 156.156ZM1129.66 156.156H1141.46V247.744H1129.66V156.156ZM1135.51 118.608C1137.75 118.594 1139.93 119.36 1141.67 120.774C1143.41 122.189 1144.61 124.165 1145.06 126.365C1145.51 128.565 1145.18 130.852 1144.13 132.836C1143.08 134.821 1141.37 136.379 1139.3 137.245C1137.23 138.111 1134.93 138.231 1132.78 137.584C1130.63 136.938 1128.77 135.565 1127.52 133.701C1126.27 131.836 1125.71 129.596 1125.92 127.361C1126.14 125.127 1127.13 123.037 1128.71 121.449C1129.62 120.59 1130.68 119.921 1131.85 119.481C1133.02 119.041 1134.26 118.839 1135.51 118.886V118.608ZM1034.28 156.156H1046.03V172.702C1050.15 166.949 1055.47 162.159 1061.62 158.663C1067.33 155.537 1073.76 153.926 1080.27 153.984C1086.69 153.867 1093 155.692 1098.37 159.22C1103.58 162.597 1107.66 167.471 1110.06 173.204C1112.95 182.019 1114.15 191.297 1113.62 200.557V247.577H1102.49V204.179C1102.75 197.132 1102.3 190.077 1101.15 183.12C1100.31 177.746 1097.48 172.885 1093.22 169.508C1088.95 166.132 1083.58 164.487 1078.15 164.903C1071.16 164.873 1064.39 167.387 1059.11 171.978C1053.65 176.466 1049.75 182.571 1047.98 189.415C1046.57 197.619 1046.01 205.945 1046.3 214.262V247.688H1034.56L1034.28 156.156ZM931.824 124.067H944.13V198.83C944.13 207.688 944.13 213.148 944.631 215.544C945.084 219.891 946.552 224.07 948.918 227.744C951.562 231.356 955.117 234.201 959.22 235.989C963.588 238.134 968.386 239.258 973.251 239.276C977.29 239.291 981.282 238.416 984.944 236.713C988.611 235.081 991.837 232.598 994.354 229.471C996.981 226.196 998.88 222.397 999.922 218.329C1000.97 211.96 1001.38 205.503 1001.15 199.053V124.346H1013.4V198.83C1013.64 207.836 1012.55 216.829 1010.17 225.516C1007.57 233.01 1002.65 239.486 996.141 244.011C989.627 248.536 981.847 250.877 973.919 250.697C964.86 250.942 955.937 248.457 948.306 243.566C941.481 239.158 936.447 232.463 934.107 224.68C932.186 216.168 931.419 207.436 931.824 198.719V124.067ZM854.817 192.591C853.614 187.169 851.281 182.062 847.969 177.605C844.773 173.675 840.689 170.562 836.053 168.524C831.212 166.24 825.925 165.06 820.573 165.07C812.071 164.908 803.827 167.996 797.521 173.705C792.264 178.868 788.576 185.417 786.886 192.591H854.817ZM854.817 217.159L864.673 222.34C861.914 228.11 858.142 233.336 853.537 237.772C849.382 241.647 844.525 244.692 839.227 246.741C833.447 248.841 827.335 249.879 821.186 249.805C814.648 250.146 808.118 249.005 802.083 246.468C796.048 243.931 790.663 240.063 786.329 235.154C778.595 226.386 774.166 215.189 773.81 203.5C773.454 191.811 777.193 180.365 784.381 171.142C788.577 165.57 794.05 161.088 800.339 158.073C806.627 155.058 813.548 153.598 820.518 153.817C827.668 153.647 834.756 155.192 841.188 158.322C847.62 161.453 853.209 166.078 857.49 171.811C864.308 180.755 867.864 191.764 867.568 203.009H785.717C785.581 212.703 789.214 222.072 795.851 229.137C798.929 232.48 802.677 235.136 806.851 236.931C811.024 238.726 815.53 239.62 820.072 239.555C824.695 239.578 829.282 238.747 833.603 237.103C837.679 235.649 841.454 233.459 844.739 230.641C848.744 226.71 852.141 222.204 854.817 217.271V217.159ZM762.832 175.432L753.533 181.003C749.775 175.829 744.803 171.66 739.055 168.862C733.306 166.064 726.958 164.723 720.57 164.959C715.445 164.78 710.336 165.64 705.552 167.488C700.767 169.336 696.406 172.133 692.729 175.711C689.152 179.034 686.312 183.072 684.394 187.563C682.475 192.055 681.521 196.899 681.593 201.783C681.571 208.4 683.321 214.902 686.66 220.613C689.906 226.378 694.712 231.109 700.525 234.262C706.613 237.538 713.435 239.206 720.347 239.109C726.71 239.232 733.011 237.841 738.732 235.052C744.453 232.262 749.431 228.154 753.255 223.064L762.554 229.193C758.157 235.763 752.082 241.034 744.958 244.457C737.141 248.205 728.57 250.111 719.902 250.028C713.301 250.242 706.725 249.134 700.558 246.771C694.391 244.408 688.757 240.837 683.987 236.268C679.417 231.996 675.789 226.816 673.334 221.06C670.88 215.304 669.653 209.099 669.733 202.842C669.689 194.179 671.999 185.668 676.415 178.218C680.76 170.726 687.103 164.592 694.734 160.502C702.734 156.184 711.703 153.979 720.793 154.095C726.732 154.085 732.634 155.025 738.277 156.881C743.398 158.501 748.228 160.927 752.587 164.067C756.71 167.151 760.19 171.012 762.832 175.432ZM608.762 165.46C602.408 165.393 596.155 167.049 590.666 170.251C585.096 173.474 580.528 178.18 577.469 183.844C574.24 189.452 572.55 195.813 572.569 202.284C572.571 208.753 574.26 215.109 577.469 220.725C580.614 226.391 585.207 231.121 590.777 234.429C596.178 237.66 602.358 239.355 608.651 239.332C615.074 239.336 621.388 237.665 626.97 234.485C632.595 231.453 637.232 226.871 640.333 221.282C643.498 215.578 645.111 209.142 645.011 202.619C645.144 197.721 644.285 192.846 642.486 188.289C640.687 183.732 637.985 179.586 634.543 176.101C631.23 172.62 627.223 169.874 622.782 168.04C618.341 166.207 613.565 165.328 608.762 165.46ZM655.701 156.435V247.744H644.175V232.034C639.616 237.667 633.925 242.279 627.471 245.571C618.722 249.749 608.882 251.072 599.34 249.352C589.799 247.633 581.038 242.959 574.296 235.989C569.835 231.511 566.323 226.178 563.969 220.31C561.616 214.443 560.469 208.16 560.598 201.839C560.534 195.619 561.73 189.451 564.113 183.707C566.495 177.962 570.016 172.759 574.463 168.413C578.754 163.883 583.941 160.296 589.692 157.879C595.443 155.462 601.634 154.268 607.871 154.374C614.937 154.273 621.918 155.919 628.195 159.165C634.579 162.627 640.069 167.529 644.231 173.482V156.769L655.701 156.435ZM502.467 165.46C497.675 165.347 492.913 166.234 488.483 168.066C484.054 169.899 480.055 172.635 476.742 176.101C473.307 179.589 470.614 183.736 468.824 188.294C467.035 192.851 466.186 197.724 466.33 202.619C466.212 209.137 467.806 215.572 470.951 221.282C474.112 226.864 478.782 231.44 484.426 234.485C490.011 237.658 496.323 239.328 502.745 239.332C509.038 239.355 515.218 237.66 520.619 234.429C528.981 229.387 535.038 221.27 537.494 211.816C539.95 202.362 538.609 192.322 533.76 183.844C530.705 178.225 526.178 173.544 520.664 170.305C515.151 167.066 508.86 165.391 502.467 165.46ZM455.472 156.435H467.165V173.148C471.32 167.209 476.789 162.31 483.145 158.83C489.39 155.604 496.33 153.959 503.358 154.039C509.594 153.941 515.783 155.138 521.533 157.554C527.284 159.971 532.471 163.554 536.766 168.078C541.195 172.436 544.7 177.641 547.073 183.385C549.446 189.128 550.637 195.29 550.575 201.505C550.704 207.826 549.558 214.108 547.204 219.976C544.851 225.844 541.339 231.176 536.878 235.655C530.144 242.62 521.393 247.292 511.861 249.011C502.33 250.731 492.499 249.41 483.758 245.237C477.298 241.953 471.606 237.34 467.054 231.7V280.78H455.472V156.435ZM366.382 224.736L376.85 218.44C384.274 232.034 392.812 238.83 402.463 238.83C406.524 238.856 410.526 237.86 414.101 235.933C417.587 234.272 420.539 231.667 422.62 228.413C424.479 225.296 425.46 221.735 425.46 218.106C425.377 213.702 423.917 209.435 421.284 205.906C415.223 198.345 408.117 191.685 400.181 186.128C393.132 181.347 386.682 175.736 380.971 169.415C376.739 163.989 374.446 157.301 374.456 150.418C374.372 145.264 375.68 140.183 378.242 135.711C380.913 131.269 384.77 127.661 389.378 125.293C394.03 122.723 399.266 121.399 404.579 121.449C410.289 121.423 415.902 122.924 420.838 125.794C427.231 129.93 432.707 135.334 436.93 141.672L426.852 149.304C423.654 144.581 419.637 140.468 414.992 137.159C411.767 135.21 408.068 134.189 404.301 134.206C402.066 134.112 399.835 134.468 397.741 135.253C395.646 136.038 393.73 137.235 392.107 138.775C390.578 140.194 389.367 141.92 388.551 143.84C387.736 145.76 387.334 147.831 387.374 149.917C387.368 152.624 387.938 155.302 389.044 157.772C390.602 160.833 392.674 163.603 395.169 165.961C396.784 167.521 402.129 171.532 411.094 178.273C419.564 183.996 427.001 191.117 433.088 199.332C436.836 204.804 438.906 211.251 439.046 217.883C439.011 222.231 438.078 226.524 436.305 230.493C434.532 234.462 431.958 238.021 428.745 240.947C425.46 244.156 421.564 246.673 417.289 248.348C413.013 250.022 408.445 250.821 403.856 250.697C396.659 250.912 389.563 248.972 383.476 245.126C376.277 239.805 370.485 232.806 366.605 224.736H366.382Z" fill="white"/>
<path d="M524.127 277.381H1551.67L1571.04 223.008L1537.19 247.743" stroke="white" stroke-width="0.99" stroke-miterlimit="2.61"/>
</svg>
