<svg width="412" height="100" viewBox="0 0 1650 369" fill="none" xmlns="http://www.w3.org/2000/svg">
<path fill-rule="evenodd" clip-rule="evenodd" d="M215.319 45.5898C242.851 45.5898 269.764 53.7515 292.656 69.0427C315.548 84.334 333.39 106.068 343.926 131.496C354.462 156.925 357.218 184.905 351.847 211.9C346.476 238.895 333.218 263.691 313.75 283.153C294.283 302.615 269.479 315.869 242.476 321.238C215.474 326.608 187.484 323.852 162.048 313.319C136.612 302.787 114.872 284.95 99.5761 262.065C84.2803 239.18 76.1162 212.275 76.1162 184.751C76.1162 147.843 90.7822 112.447 116.888 86.3492C142.993 60.2514 178.4 45.5898 215.319 45.5898Z" fill="#0071BB"/>
<path fill-rule="evenodd" clip-rule="evenodd" d="M271.167 166.994C273.667 166.994 276.111 167.735 278.19 169.124C280.268 170.512 281.888 172.486 282.845 174.794C283.801 177.103 284.052 179.644 283.564 182.095C283.076 184.546 281.873 186.798 280.105 188.565C278.337 190.332 276.085 191.535 273.633 192.023C271.181 192.511 268.64 192.26 266.33 191.304C264.021 190.348 262.047 188.728 260.658 186.65C259.269 184.572 258.528 182.129 258.528 179.63C258.528 176.279 259.859 173.065 262.23 170.695C264.6 168.325 267.815 166.994 271.167 166.994Z" fill="white"/>
<path d="M271.167 166.994C273.667 166.994 276.111 167.735 278.19 169.124C280.268 170.512 281.888 172.486 282.845 174.794C283.801 177.103 284.052 179.644 283.564 182.095C283.076 184.546 281.873 186.798 280.105 188.565C278.337 190.332 276.085 191.535 273.633 192.023C271.181 192.511 268.64 192.26 266.33 191.304C264.021 190.348 262.047 188.728 260.658 186.65C259.269 184.572 258.528 182.129 258.528 179.63C258.528 176.279 259.859 173.065 262.23 170.695C264.6 168.325 267.815 166.994 271.167 166.994Z" stroke="white" stroke-width="0.26" stroke-miterlimit="2.61"/>
<path d="M84.1899 138.494L116.93 177.849L125.394 197.499L111.362 242.976" stroke="white" stroke-width="0.26" stroke-miterlimit="2.61"/>
<path d="M123.501 253.274L210.308 205.737L202.568 200.337L135.194 181.133" stroke="white" stroke-width="0.26" stroke-miterlimit="2.61"/>
<path d="M195.998 138.494L207.691 197.499L218.938 199.836L271.167 179.742" stroke="white" stroke-width="0.26" stroke-miterlimit="2.61"/>
<path d="M216.154 212.025L217.546 273.757L289.097 257.503" stroke="white" stroke-width="0.26" stroke-miterlimit="2.61"/>
<path fill-rule="evenodd" clip-rule="evenodd" d="M176.843 236.406C177.683 236.406 178.503 236.656 179.2 237.123C179.897 237.591 180.439 238.255 180.758 239.031C181.077 239.807 181.157 240.661 180.989 241.483C180.821 242.305 180.413 243.059 179.815 243.648C179.218 244.237 178.459 244.636 177.634 244.793C176.81 244.95 175.957 244.858 175.185 244.529C174.413 244.2 173.756 243.649 173.298 242.946C172.839 242.243 172.601 241.42 172.612 240.581C172.626 239.469 173.079 238.407 173.871 237.626C174.663 236.844 175.731 236.406 176.843 236.406Z" fill="white"/>
<path d="M176.843 236.406C177.683 236.406 178.503 236.656 179.2 237.123C179.897 237.591 180.439 238.255 180.758 239.031C181.077 239.807 181.157 240.661 180.989 241.483C180.821 242.305 180.413 243.059 179.815 243.648C179.218 244.237 178.459 244.636 177.634 244.793C176.81 244.95 175.957 244.858 175.185 244.529C174.413 244.2 173.756 243.649 173.298 242.946C172.839 242.243 172.601 241.42 172.612 240.581C172.626 239.469 173.079 238.407 173.871 237.626C174.663 236.844 175.731 236.406 176.843 236.406Z" stroke="white" stroke-width="0.26" stroke-miterlimit="2.61"/>
<path fill-rule="evenodd" clip-rule="evenodd" d="M258.249 212.527C259.089 212.527 259.909 212.777 260.606 213.244C261.303 213.712 261.845 214.376 262.164 215.152C262.483 215.928 262.563 216.782 262.395 217.604C262.227 218.426 261.819 219.18 261.221 219.769C260.624 220.358 259.865 220.757 259.04 220.914C258.216 221.071 257.363 220.979 256.591 220.65C255.819 220.321 255.162 219.77 254.703 219.067C254.245 218.365 254.006 217.541 254.017 216.702C254.032 215.59 254.484 214.528 255.276 213.747C256.068 212.965 257.136 212.527 258.249 212.527Z" fill="white"/>
<path d="M258.249 212.527C259.089 212.527 259.909 212.777 260.606 213.244C261.303 213.712 261.845 214.376 262.164 215.152C262.483 215.928 262.563 216.782 262.395 217.604C262.227 218.426 261.819 219.18 261.221 219.769C260.624 220.358 259.865 220.757 259.04 220.914C258.216 221.071 257.363 220.979 256.591 220.65C255.819 220.321 255.162 219.77 254.703 219.067C254.245 218.365 254.006 217.541 254.017 216.702C254.032 215.59 254.484 214.528 255.276 213.747C256.068 212.965 257.136 212.527 258.249 212.527Z" stroke="white" stroke-width="0.26" stroke-miterlimit="2.61"/>
<path fill-rule="evenodd" clip-rule="evenodd" d="M309.699 149.738C310.821 149.738 311.897 150.184 312.691 150.977C313.485 151.771 313.93 152.847 313.93 153.969C313.931 154.522 313.821 155.069 313.607 155.579C313.394 156.09 313.081 156.552 312.688 156.941C312.294 157.329 311.827 157.635 311.314 157.842C310.801 158.048 310.252 158.151 309.699 158.144C309.148 158.151 308.602 158.048 308.092 157.841C307.582 157.634 307.118 157.327 306.729 156.938C306.34 156.548 306.032 156.085 305.825 155.575C305.618 155.065 305.515 154.519 305.523 153.969C305.515 153.416 305.618 152.867 305.824 152.354C306.031 151.841 306.337 151.374 306.726 150.981C307.114 150.587 307.577 150.275 308.088 150.061C308.598 149.848 309.146 149.738 309.699 149.738Z" fill="white"/>
<path d="M309.699 149.738C310.821 149.738 311.897 150.184 312.691 150.977C313.485 151.771 313.93 152.847 313.93 153.969C313.931 154.522 313.821 155.069 313.607 155.579C313.394 156.09 313.081 156.552 312.688 156.941C312.294 157.329 311.827 157.635 311.314 157.842C310.801 158.048 310.252 158.151 309.699 158.144C309.148 158.151 308.602 158.048 308.092 157.841C307.582 157.634 307.118 157.327 306.729 156.938C306.34 156.548 306.032 156.085 305.825 155.575C305.618 155.065 305.515 154.519 305.523 153.969C305.515 153.416 305.618 152.867 305.824 152.354C306.031 151.841 306.337 151.374 306.726 150.981C307.114 150.587 307.577 150.275 308.088 150.061C308.598 149.848 309.146 149.738 309.699 149.738Z" stroke="white" stroke-width="0.26" stroke-miterlimit="2.61"/>
<path fill-rule="evenodd" clip-rule="evenodd" d="M241.879 119.289C243.001 119.289 244.078 119.735 244.871 120.528C245.665 121.322 246.111 122.398 246.111 123.52C246.111 124.642 245.665 125.718 244.871 126.511C244.078 127.304 243.001 127.75 241.879 127.75C240.757 127.75 239.68 127.304 238.887 126.511C238.093 125.718 237.647 124.642 237.647 123.52C237.647 122.398 238.093 121.322 238.887 120.528C239.68 119.735 240.757 119.289 241.879 119.289Z" fill="white"/>
<path d="M241.879 119.289C243.001 119.289 244.078 119.735 244.871 120.528C245.665 121.322 246.111 122.398 246.111 123.52C246.111 124.642 245.665 125.718 244.871 126.511C244.078 127.304 243.001 127.75 241.879 127.75C240.757 127.75 239.68 127.304 238.887 126.511C238.093 125.718 237.647 124.642 237.647 123.52C237.647 122.398 238.093 121.322 238.887 120.528C239.68 119.735 240.757 119.289 241.879 119.289Z" stroke="white" stroke-width="0.26" stroke-miterlimit="2.61"/>
<path fill-rule="evenodd" clip-rule="evenodd" d="M172.166 77.5957C173.289 77.5957 174.365 78.0414 175.159 78.8348C175.952 79.6282 176.398 80.7042 176.398 81.8262C176.398 82.9482 175.952 84.0243 175.159 84.8176C174.365 85.611 173.289 86.0567 172.166 86.0567C171.044 86.0567 169.968 85.611 169.174 84.8176C168.38 84.0243 167.934 82.9482 167.934 81.8262C167.934 80.7042 168.38 79.6282 169.174 78.8348C169.968 78.0414 171.044 77.5957 172.166 77.5957Z" fill="white"/>
<path d="M172.166 77.5957C173.289 77.5957 174.365 78.0414 175.159 78.8348C175.952 79.6282 176.398 80.7042 176.398 81.8262C176.398 82.9482 175.952 84.0243 175.159 84.8176C174.365 85.611 173.289 86.0567 172.166 86.0567C171.044 86.0567 169.968 85.611 169.174 84.8176C168.38 84.0243 167.934 82.9482 167.934 81.8262C167.934 80.7042 168.38 79.6282 169.174 78.8348C169.968 78.0414 171.044 77.5957 172.166 77.5957Z" stroke="white" stroke-width="0.26" stroke-miterlimit="2.61"/>
<path fill-rule="evenodd" clip-rule="evenodd" d="M210.308 190.483C213.308 190.517 216.233 191.434 218.714 193.12C221.196 194.806 223.126 197.186 224.261 199.963C225.397 202.74 225.688 205.79 225.098 208.731C224.509 211.673 223.065 214.375 220.947 216.5C218.829 218.625 216.131 220.078 213.191 220.678C210.25 221.278 207.199 220.998 204.417 219.873C201.635 218.748 199.247 216.828 197.551 214.353C195.856 211.878 194.928 208.958 194.884 205.958C194.854 203.922 195.232 201.901 195.996 200.014C196.76 198.127 197.894 196.411 199.332 194.969C200.769 193.527 202.481 192.387 204.366 191.617C206.251 190.846 208.271 190.461 210.308 190.483Z" fill="white"/>
<path d="M210.308 190.483C213.308 190.517 216.233 191.434 218.714 193.12C221.196 194.806 223.126 197.186 224.261 199.963C225.397 202.74 225.688 205.79 225.098 208.731C224.509 211.673 223.065 214.375 220.947 216.5C218.829 218.625 216.131 220.078 213.191 220.678C210.25 221.278 207.199 220.998 204.417 219.873C201.635 218.748 199.247 216.828 197.551 214.353C195.856 211.878 194.928 208.958 194.884 205.958C194.854 203.922 195.232 201.901 195.996 200.014C196.76 198.127 197.894 196.411 199.332 194.969C200.769 193.527 202.481 192.387 204.366 191.617C206.251 190.846 208.271 190.461 210.308 190.483Z" stroke="white" stroke-width="0.26" stroke-miterlimit="2.61"/>
<path fill-rule="evenodd" clip-rule="evenodd" d="M126.786 154.023C131.608 154.024 136.321 155.456 140.327 158.139C144.334 160.822 147.452 164.634 149.287 169.092C151.122 173.55 151.591 178.452 150.634 183.177C149.677 187.902 147.337 192.235 143.912 195.628C140.486 199.021 136.13 201.32 131.395 202.234C126.661 203.147 121.761 202.633 117.319 200.758C112.877 198.883 109.092 195.73 106.445 191.701C103.799 187.671 102.409 182.947 102.453 178.126C102.512 171.713 105.102 165.583 109.659 161.069C114.215 156.555 120.371 154.023 126.786 154.023Z" fill="white"/>
<path d="M126.786 154.023C131.608 154.024 136.321 155.456 140.327 158.139C144.334 160.822 147.452 164.634 149.287 169.092C151.122 173.55 151.591 178.452 150.634 183.177C149.677 187.902 147.337 192.235 143.912 195.628C140.486 199.021 136.13 201.32 131.395 202.234C126.661 203.147 121.761 202.633 117.319 200.758C112.877 198.883 109.092 195.73 106.445 191.701C103.799 187.671 102.409 182.947 102.453 178.126C102.512 171.713 105.102 165.583 109.659 161.069C114.215 156.555 120.371 154.023 126.786 154.023Z" stroke="white" stroke-width="0.26" stroke-miterlimit="2.61"/>
<path fill-rule="evenodd" clip-rule="evenodd" d="M125.728 290.68C107.338 275.129 93.2794 255.092 84.9138 232.511C90.7069 228.673 97.5084 226.639 104.458 226.666C111.916 226.686 119.18 229.048 125.222 233.418C131.264 237.789 135.78 243.947 138.131 251.023C140.483 258.099 140.55 265.734 138.324 272.85C136.099 279.967 131.692 286.204 125.728 290.68Z" fill="white"/>
<path d="M125.728 290.68C107.338 275.129 93.2794 255.092 84.9138 232.511C90.7069 228.673 97.5084 226.639 104.458 226.666C111.916 226.686 119.18 229.048 125.222 233.418C131.264 237.789 135.78 243.947 138.131 251.023C140.483 258.099 140.55 265.734 138.324 272.85C136.099 279.967 131.692 286.204 125.728 290.68Z" stroke="white" stroke-width="0.26" stroke-miterlimit="2.61"/>
<path fill-rule="evenodd" clip-rule="evenodd" d="M217.546 258.785C220.511 258.774 223.412 259.643 225.883 261.282C228.353 262.92 230.282 265.255 231.424 267.99C232.566 270.725 232.871 273.738 232.299 276.646C231.728 279.554 230.305 282.228 228.213 284.327C226.12 286.427 223.452 287.859 220.545 288.441C217.638 289.023 214.623 288.73 211.883 287.598C209.143 286.467 206.8 284.547 205.152 282.084C203.504 279.62 202.624 276.723 202.624 273.759C202.624 269.797 204.194 265.997 206.991 263.191C209.788 260.384 213.584 258.8 217.546 258.785Z" fill="white"/>
<path d="M217.546 258.785C220.511 258.774 223.412 259.643 225.883 261.282C228.353 262.92 230.282 265.255 231.424 267.99C232.566 270.725 232.871 273.738 232.299 276.646C231.728 279.554 230.305 282.228 228.213 284.327C226.12 286.427 223.452 287.859 220.545 288.441C217.638 289.023 214.623 288.73 211.883 287.598C209.143 286.467 206.8 284.547 205.152 282.084C203.504 279.62 202.624 276.723 202.624 273.759C202.624 269.797 204.194 265.997 206.991 263.191C209.788 260.384 213.584 258.8 217.546 258.785Z" stroke="white" stroke-width="0.26" stroke-miterlimit="2.61"/>
<path fill-rule="evenodd" clip-rule="evenodd" d="M193.603 120.291C196.348 120.28 199.034 121.084 201.321 122.6C203.609 124.116 205.394 126.277 206.452 128.809C207.51 131.34 207.793 134.129 207.264 136.821C206.735 139.514 205.419 141.989 203.483 143.933C201.546 145.877 199.076 147.202 196.385 147.742C193.694 148.281 190.903 148.01 188.366 146.962C185.83 145.915 183.661 144.138 182.135 141.858C180.609 139.577 179.795 136.895 179.795 134.152C179.787 132.334 180.139 130.533 180.83 128.852C181.52 127.17 182.536 125.642 183.819 124.354C185.102 123.066 186.627 122.044 188.306 121.347C189.985 120.65 191.785 120.291 193.603 120.291Z" fill="white"/>
<path d="M193.603 120.291C196.348 120.28 199.034 121.084 201.321 122.6C203.609 124.116 205.394 126.277 206.452 128.809C207.51 131.34 207.793 134.129 207.264 136.821C206.735 139.514 205.419 141.989 203.483 143.933C201.546 145.877 199.076 147.202 196.385 147.742C193.694 148.281 190.903 148.01 188.366 146.962C185.83 145.915 183.661 144.138 182.135 141.858C180.609 139.577 179.795 136.895 179.795 134.152C179.787 132.334 180.139 130.533 180.83 128.852C181.52 127.17 182.536 125.642 183.819 124.354C185.102 123.066 186.627 122.044 188.306 121.347C189.985 120.65 191.785 120.291 193.603 120.291Z" stroke="white" stroke-width="0.26" stroke-miterlimit="2.61"/>
<path d="M1529.51 177.402C1528.34 171.955 1526 166.827 1522.66 162.373C1519.45 158.491 1515.39 155.404 1510.8 153.355C1505.94 151.052 1500.63 149.873 1495.26 149.904C1486.78 149.756 1478.56 152.841 1472.27 158.532C1466.99 163.684 1463.28 170.227 1461.57 177.402H1529.51ZM1529.51 201.95L1539.36 207.127C1536.6 212.893 1532.83 218.116 1528.23 222.546C1524.04 226.412 1519.17 229.453 1513.86 231.508C1508.1 233.61 1502.01 234.648 1495.87 234.569C1489.33 234.91 1482.79 233.77 1476.75 231.236C1470.7 228.701 1465.31 224.836 1460.96 219.93C1452.81 210.849 1448.33 199.065 1448.38 186.865C1448.19 175.632 1451.88 164.679 1458.85 155.86C1463.04 150.307 1468.51 145.841 1474.79 142.839C1481.06 139.836 1487.97 138.384 1494.93 138.604C1502.1 138.371 1509.22 139.856 1515.7 142.936C1522.18 146.015 1527.83 150.599 1532.18 156.305C1538.97 165.255 1542.53 176.245 1542.26 187.477H1460.41C1460.27 197.164 1463.9 206.525 1470.54 213.584C1473.65 216.886 1477.41 219.498 1481.6 221.253C1485.78 223.008 1490.28 223.865 1494.82 223.77C1499.44 223.762 1504.02 222.933 1508.35 221.321C1512.42 219.855 1516.19 217.667 1519.48 214.864C1523.45 211.083 1526.83 206.73 1529.51 201.95ZM1439.53 150.961L1431.95 158.81C1427.3 153.451 1420.71 150.15 1413.63 149.625C1410 149.559 1406.48 150.918 1403.83 153.411C1402.56 154.496 1401.54 155.844 1400.84 157.363C1400.14 158.881 1399.77 160.533 1399.77 162.206C1399.83 165.335 1401.02 168.337 1403.11 170.667C1407.2 174.694 1411.97 177.972 1417.2 180.352C1423.99 183.377 1430.05 187.84 1434.96 193.433C1438.05 197.558 1439.69 202.586 1439.64 207.739C1439.69 211.284 1439.01 214.801 1437.65 218.075C1436.29 221.349 1434.28 224.31 1431.73 226.776C1429.14 229.342 1426.06 231.356 1422.67 232.696C1419.29 234.036 1415.66 234.673 1412.02 234.569C1406.81 234.565 1401.67 233.386 1396.98 231.118C1392.34 228.943 1388.28 225.7 1385.12 221.655L1392.47 213.25C1394.73 216.213 1397.6 218.653 1400.89 220.402C1404.17 222.151 1407.8 223.167 1411.52 223.381C1415.94 223.478 1420.23 221.862 1423.49 218.872C1425.03 217.562 1426.28 215.934 1427.13 214.099C1427.99 212.263 1428.44 210.265 1428.44 208.24C1428.54 204.99 1427.48 201.812 1425.44 199.278C1421.09 195.237 1416.11 191.945 1410.68 189.537C1404.24 186.648 1398.53 182.348 1393.98 176.957C1391.04 172.834 1389.5 167.879 1389.58 162.818C1389.48 159.607 1390.06 156.412 1391.28 153.439C1392.5 150.466 1394.33 147.783 1396.65 145.562C1398.99 143.295 1401.75 141.516 1404.78 140.331C1407.81 139.146 1411.05 138.577 1414.3 138.659C1424 139.298 1433.05 143.716 1439.53 150.961ZM1345.2 140.997H1357.17V154.357C1360.08 149.737 1363.86 145.728 1368.31 142.556C1371.98 140.077 1376.3 138.723 1380.73 138.659C1384.4 138.802 1387.99 139.874 1391.14 141.777L1385.01 151.685C1383.07 150.714 1380.95 150.164 1378.78 150.071C1374.61 150.263 1370.65 151.964 1367.64 154.858C1363.51 158.965 1360.64 164.157 1359.34 169.832C1357.47 180.222 1356.74 190.788 1357.17 201.338V232.176H1345.2V140.997ZM1322.48 177.402C1321.29 171.963 1318.96 166.84 1315.63 162.373C1312.43 158.491 1308.37 155.404 1303.77 153.355C1298.92 151.052 1293.61 149.873 1288.24 149.904C1279.74 149.742 1271.49 152.828 1265.19 158.532C1259.93 163.691 1256.24 170.233 1254.55 177.402H1322.48ZM1322.48 201.95L1332.34 207.127C1329.58 212.893 1325.81 218.116 1321.2 222.546C1317.02 226.412 1312.15 229.453 1306.84 231.508C1301.06 233.616 1294.95 234.653 1288.8 234.569C1282.26 234.905 1275.73 233.763 1269.7 231.229C1263.66 228.694 1258.28 224.832 1253.94 219.93C1245.79 210.849 1241.31 199.065 1241.36 186.865C1241.21 175.612 1244.97 164.656 1251.99 155.86C1256.19 150.307 1261.65 145.841 1267.93 142.839C1274.21 139.836 1281.12 138.384 1288.07 138.604C1295.23 138.395 1302.33 139.898 1308.79 142.986C1315.25 146.075 1320.88 150.66 1325.21 156.361C1332.01 165.31 1335.56 176.301 1335.29 187.533H1253.38C1253.25 197.22 1256.88 206.58 1263.52 213.64C1266.62 216.934 1270.38 219.543 1274.55 221.297C1278.72 223.052 1283.21 223.913 1287.74 223.826C1292.36 223.827 1296.94 222.998 1301.27 221.377C1305.34 219.924 1309.12 217.735 1312.41 214.92C1316.4 211.126 1319.79 206.754 1322.48 201.95ZM1149.48 140.719H1162.01L1192.52 207.127L1222.76 140.719H1235.34L1193.58 231.897H1191.58L1149.48 140.719ZM1129.66 140.719H1141.46V232.176H1129.66V140.719ZM1135.51 103.201C1138.08 103.201 1140.54 104.222 1142.36 106.038C1144.17 107.854 1145.19 110.318 1145.19 112.887C1145.01 115.322 1143.91 117.597 1142.12 119.257C1140.33 120.916 1137.98 121.839 1135.53 121.839C1133.09 121.839 1130.74 120.916 1128.95 119.257C1127.16 117.597 1126.06 115.322 1125.87 112.887C1125.87 110.328 1126.89 107.872 1128.69 106.058C1130.5 104.243 1132.95 103.216 1135.51 103.201ZM1034.28 140.719H1046.03V157.084C1050.13 151.322 1055.45 146.532 1061.62 143.057C1067.33 139.934 1073.76 138.324 1080.27 138.381C1086.68 138.275 1092.98 140.077 1098.37 143.558C1103.59 146.952 1107.66 151.84 1110.06 157.585C1113.03 166.396 1114.31 175.687 1113.85 184.972V231.897H1102.49V188.702C1102.75 181.661 1102.3 174.612 1101.15 167.661C1100.16 162.343 1097.37 157.529 1093.24 154.023C1088.88 150.838 1083.56 149.229 1078.15 149.458C1071.15 149.403 1064.38 151.918 1059.11 156.528C1053.63 160.991 1049.72 167.099 1047.98 173.951C1046.57 182.147 1046.01 190.466 1046.3 198.777V232.176H1034.56L1034.28 140.719ZM931.824 108.601H944.13V183.358C944.13 192.153 944.13 197.664 944.631 200.057C945.084 204.401 946.552 208.577 948.918 212.248C951.562 215.857 955.117 218.7 959.22 220.486C963.588 222.629 968.385 223.752 973.251 223.77C977.296 223.792 981.294 222.898 984.944 221.154C988.607 219.543 991.833 217.081 994.354 213.974C996.981 210.701 998.88 206.905 999.922 202.841C1000.96 196.477 1001.37 190.025 1001.15 183.581V108.879H1013.4V183.358C1013.63 192.356 1012.55 201.34 1010.17 210.021C1007.58 217.549 1002.66 224.057 996.121 228.601C989.584 233.145 981.768 235.489 973.808 235.293C964.749 235.538 955.825 233.055 948.195 228.168C941.369 223.764 936.336 217.074 933.996 209.298C932.075 200.793 931.307 192.068 931.713 183.358L931.824 108.601ZM854.817 177.402C853.603 171.971 851.27 166.853 847.968 162.373C844.755 158.478 840.674 155.39 836.053 153.355C831.221 151.048 825.928 149.867 820.573 149.904C812.071 149.742 803.827 152.828 797.521 158.532C792.264 163.691 788.576 170.233 786.886 177.402H854.817ZM854.817 201.95L864.673 207.127C861.914 212.891 858.142 218.114 853.537 222.546C849.382 226.418 844.525 229.46 839.227 231.508C833.447 233.606 827.335 234.643 821.186 234.569C814.648 234.909 808.118 233.769 802.083 231.235C796.048 228.7 790.663 224.835 786.329 219.93C778.58 211.165 774.143 199.966 773.787 188.275C773.431 176.583 777.179 165.135 784.381 155.915C788.59 150.365 794.066 145.902 800.353 142.9C806.64 139.898 813.554 138.444 820.518 138.659C827.644 138.458 834.716 139.959 841.147 143.037C847.577 146.116 853.18 150.683 857.49 156.361C864.308 165.298 867.864 176.297 867.568 187.533H785.717C785.58 197.22 789.214 206.58 795.851 213.64C798.949 216.94 802.706 219.552 806.878 221.307C811.051 223.062 815.546 223.92 820.072 223.826C824.692 223.818 829.273 222.988 833.603 221.377C837.679 219.924 841.453 217.735 844.739 214.92C848.714 211.111 852.109 206.742 854.817 201.95ZM762.832 159.979L753.533 165.545C749.775 160.376 744.803 156.21 739.055 153.414C733.306 150.618 726.958 149.279 720.57 149.514C715.45 149.341 710.347 150.198 705.565 152.034C700.783 153.87 696.418 156.647 692.729 160.202C689.156 163.537 686.319 167.583 684.401 172.078C682.484 176.574 681.527 181.421 681.593 186.308C681.578 192.901 683.328 199.378 686.66 205.067C689.889 210.84 694.699 215.571 700.525 218.705C706.609 221.995 713.431 223.681 720.347 223.603C726.71 223.726 733.011 222.337 738.732 219.549C744.453 216.762 749.431 212.657 753.255 207.572L762.554 213.695C758.171 220.258 752.09 225.51 744.958 228.892C737.15 232.661 728.572 234.566 719.902 234.458C713.305 234.643 706.736 233.524 700.573 231.165C694.41 228.805 688.773 225.252 683.987 220.709C679.417 216.44 675.789 211.265 673.334 205.514C670.88 199.762 669.653 193.562 669.733 187.31C669.684 178.655 671.994 170.149 676.415 162.707C680.76 155.221 687.103 149.093 694.734 145.005C702.724 140.665 711.7 138.46 720.793 138.604C726.732 138.593 732.634 139.533 738.277 141.387C743.407 142.984 748.241 145.409 752.587 148.568C756.715 151.665 760.196 155.542 762.832 159.979ZM608.539 149.959C602.181 149.912 595.928 151.586 590.443 154.802C584.875 158.001 580.306 162.684 577.247 168.329C574.034 173.948 572.343 180.309 572.343 186.781C572.343 193.254 574.034 199.615 577.247 205.234C580.392 210.896 584.984 215.622 590.554 218.928C595.965 222.133 602.139 223.825 608.428 223.826C614.856 223.811 621.17 222.122 626.747 218.928C632.424 215.992 637.139 211.491 640.333 205.958C643.505 200.241 645.118 193.791 645.011 187.255C645.136 182.37 644.274 177.51 642.475 172.967C640.676 168.423 637.978 164.29 634.543 160.814C631.247 157.298 627.249 154.515 622.808 152.645C618.366 150.775 613.581 149.86 608.762 149.959H608.539ZM655.479 140.997V232.176H643.953V216.534C639.407 222.162 633.712 226.754 627.248 230.005C618.51 234.211 608.667 235.556 599.12 233.847C589.573 232.138 580.808 227.463 574.073 220.486C569.612 216.011 566.1 210.683 563.746 204.82C561.393 198.957 560.246 192.68 560.375 186.364C560.312 180.15 561.507 173.987 563.89 168.247C566.273 162.507 569.793 157.308 574.24 152.965C578.532 148.439 583.718 144.855 589.469 142.44C595.221 140.026 601.411 138.833 607.649 138.938C614.714 138.837 621.695 140.481 627.972 143.725C634.356 147.184 639.846 152.082 644.008 158.031V141.331L655.479 140.997ZM502.467 149.959C497.672 149.857 492.907 150.754 488.478 152.594C484.049 154.434 480.052 157.177 476.742 160.647C473.314 164.125 470.625 168.261 468.835 172.804C467.046 177.348 466.194 182.206 466.33 187.088C466.176 193.675 467.77 200.186 470.951 205.958C474.14 211.457 478.809 215.95 484.426 218.928C490.007 222.115 496.318 223.803 502.745 223.826C509.035 223.825 515.208 222.133 520.619 218.928C526.174 215.62 530.748 210.894 533.871 205.234C537.1 199.62 538.8 193.257 538.8 186.781C538.8 180.305 537.1 173.943 533.871 168.329C530.788 162.738 526.255 158.081 520.748 154.848C515.241 151.616 508.964 149.927 502.578 149.959H502.467ZM455.472 140.997H467.165V157.697C471.32 151.763 476.789 146.867 483.145 143.391C489.39 140.167 496.33 138.524 503.358 138.604C509.594 138.506 515.783 139.701 521.533 142.116C527.284 144.53 532.471 148.111 536.766 152.631C541.195 156.985 544.7 162.186 547.073 167.925C549.446 173.663 550.637 179.821 550.575 186.03C550.704 192.346 549.558 198.623 547.204 204.486C544.851 210.349 541.339 215.677 536.878 220.152C530.156 227.131 521.4 231.81 511.861 233.519C502.322 235.228 492.486 233.882 483.758 229.671C477.288 226.43 471.591 221.836 467.054 216.2V265.241H455.472V140.997ZM366.382 209.242L376.85 202.952C384.274 216.534 392.812 223.325 402.463 223.325C406.524 223.351 410.526 222.355 414.101 220.431C417.549 218.671 420.426 215.968 422.397 212.638C424.264 209.527 425.246 205.967 425.237 202.34C425.15 197.957 423.69 193.713 421.061 190.205C415 182.65 407.895 175.996 399.958 170.444C392.922 165.649 386.475 160.044 380.748 153.745C376.54 148.353 374.248 141.713 374.233 134.874C374.156 129.743 375.464 124.686 378.019 120.235C380.698 115.789 384.552 112.168 389.156 109.77C393.801 107.167 399.032 105.788 404.357 105.762C410.066 105.736 415.679 107.235 420.616 110.104C427.026 114.214 432.507 119.617 436.707 125.968L426.629 133.594C423.463 128.849 419.441 124.734 414.769 121.459C411.544 119.512 407.845 118.491 404.078 118.509C399.577 118.341 395.193 119.963 391.884 123.018C390.361 124.44 389.153 126.166 388.338 128.083C387.523 130.001 387.119 132.067 387.151 134.151C387.152 136.855 387.721 139.529 388.822 141.999C390.368 145.097 392.441 147.903 394.947 150.293C396.561 151.852 401.907 155.86 410.871 162.595C419.346 168.33 426.783 175.464 432.865 183.692C436.613 189.16 438.683 195.602 438.823 202.228C438.839 206.584 437.952 210.895 436.218 214.89C434.483 218.886 431.939 222.478 428.745 225.44C425.482 228.653 421.608 231.18 417.353 232.873C413.097 234.565 408.546 235.388 403.967 235.293C396.725 235.376 389.625 233.282 383.588 229.281C376.382 224.081 370.552 217.202 366.605 209.242H366.382Z" fill="#383838"/>
<path d="M524.127 261.79H1551.67L1571.04 207.518L1537.19 232.177" stroke="#383838" stroke-width="0.99" stroke-miterlimit="2.61"/>
</svg>
